PathFileType	4	(X/Y/Z)	/Users/itak/Documents/Research/Walk-IL/dataset/trc/00133_00007.trc
DataRate	CameraRate	NumFrames	NumMarkers	Units	OrigDataRate	OrigDataStartFrame	OrigNumFrames
100.000000	100.000000	4	53	mm	100.000000	366	732
Frame#	Time	RPSI			LPSI			L3			STRN			T10			C7			CLAV			RBAK			LBAK			LSHO			LUPA			LAEL			LAOL			LWTS			LWPS			LFRA			LIFD			LHPS			LHTS			RSHO			RUPA			RAEL			RAOL			RWTS			RWPS			RFRA			RIFD			RHTS			RHPS			RBHD			LFHD			RFHD			LBHD			LHIP			RHIP			RASI			LASI			LKNE			LTHI			LANK			LTIP			LTOE			LMT1			LMT5			LHEE			RKNE			RTHI			RANK			RTIP			RTOE			RMT1			RMT5			RHEE			
		X1	Y1	Z1	X2	Y2	Z2	X3	Y3	Z3	X4	Y4	Z4	X5	Y5	Z5	X6	Y6	Z6	X7	Y7	Z7	X8	Y8	Z8	X9	Y9	Z9	X10	Y10	Z10	X11	Y11	Z11	X12	Y12	Z12	X13	Y13	Z13	X14	Y14	Z14	X15	Y15	Z15	X16	Y16	Z16	X17	Y17	Z17	X18	Y18	Z18	X19	Y19	Z19	X20	Y20	Z20	X21	Y21	Z21	X22	Y22	Z22	X23	Y23	Z23	X24	Y24	Z24	X25	Y25	Z25	X26	Y26	Z26	X27	Y27	Z27	X28	Y28	Z28	X29	Y29	Z29	X30	Y30	Z30	X31	Y31	Z31	X32	Y32	Z32	X33	Y33	Z33	X34	Y34	Z34	X35	Y35	Z35	X36	Y36	Z36	X37	Y37	Z37	X38	Y38	Z38	X39	Y39	Z39	X40	Y40	Z40	X41	Y41	Z41	X42	Y42	Z42	X43	Y43	Z43	X44	Y44	Z44	X45	Y45	Z45	X46	Y46	Z46	X47	Y47	Z47	X48	Y48	Z48	X49	Y49	Z49	X50	Y50	Z50	X51	Y51	Z51	X52	Y52	Z52	X53	Y53	Z53	

367	3.66	-16.26379013061523	1083.513305664062	-368.018798828125	-26.23555183410645	1100.054443359375	-501.0505065917969	-27.42526054382324	1127.835815429688	-437.31103515625	198.2912139892578	1317.1240234375	-445.8422546386719	-57.26662445068359	1283.379760742188	-434.6915588378906	-4.876065731048584	1572.213623046875	-443.2358093261719	170.1133575439453	1453.71240234375	-440.6493530273438	-66.20359802246094	1386.059936523438	-364.8614501953125	-14.27737998962402	1557.556762695312	-546.0144653320312	71.6112060546875	1543.962646484375	-612.8870239257812	56.77763366699219	1421.705810546875	-696.0903930664062	102.6912231445312	1213.593017578125	-752.307861328125	40.19853591918945	1180.218505859375	-700.3897094726562	272.0667419433594	994.9419555664062	-741.820068359375	200.0939025878906	946.9481201171875	-772.2977905273438	147.9319610595703	1107.363159179688	-771.9622802734375	343.7571411132812	816.9002685546875	-740.3213500976562	252.1317901611328	885.8660888671875	-782.1702270507812	314.2665100097656	917.7645874023438	-764.5225830078125	49.83938980102539	1538.314453125	-262.7581481933594	24.67358016967773	1463.443115234375	-204.4498138427734	-29.2449893951416	1174.728881835938	-208.5206298828125	-22.34805870056152	1179.882690429688	-305.2388916015625	78.17758941650391	914.6384887695312	-219.5511474609375	-1.430505752563477	907.6428833007812	-200.0424652099609	-18.81911087036133	1098.766479492188	-195.7408294677734	76.01860809326172	720.8428344726562	-251.8111419677734	90.22189331054688	802.6139526367188	-219.0876922607422	19.95832824707031	803.2760009765625	-199.5311889648438	36.48942565917969	1733.981689453125	-356.8723754882812	230.334716796875	1798.046875	-440.0248718261719	201.7303466796875	1782.13330078125	-314.6976623535156	58.48902893066406	1754.891357421875	-489.3873596191406	43.54885864257812	1017.642944335938	-625.9210205078125	122.5301055908203	978.4953002929688	-273.0908508300781	195.7904357910156	1054.116455078125	-330.7295532226562	164.0432739257812	1070.329223632812	-595.476318359375	-23.30887794494629	521.7994384765625	-619.6505737304688	-16.75710105895996	671.6272583007812	-636.10009765625	-257.0010681152344	54.52469635009766	-600.8154907226562	-184.9443054199219	304.4219360351562	-631.4330444335938	-21.05553245544434	31.74398612976074	-578.1351318359375	-97.51001739501953	41.24795913696289	-532.9102172851562	-140.0967407226562	34.41493225097656	-643.572998046875	-318.1981811523438	69.27880096435547	-532.4241943359375	272.1365966796875	526.1170654296875	-339.6735534667969	186.111083984375	782.6664428710938	-284.8944091796875	410.3304138183594	30.86527633666992	-419.9988708496094	297.790283203125	395.1695251464844	-344.4060668945312	604.3939819335938	147.5321350097656	-375.2563171386719	581.8829345703125	113.1803283691406	-433.959716796875	506.2303771972656	83.07991027832031	-346.9129638671875	378.9230346679688	22.32384872436523	-488.2658386230469	
368	3.67	-6.396216869354248	1082.473999023438	-367.78466796875	-15.94043159484863	1098.916748046875	-500.8337707519531	-17.30824089050293	1126.635986328125	-437.063720703125	207.96728515625	1316.26318359375	-444.3299255371094	-47.63555145263672	1282.090698242188	-434.4931640625	4.260739803314209	1571.058349609375	-442.5122985839844	179.4638519287109	1452.748657226562	-439.055419921875	-57.06661224365234	1384.674194335938	-364.6454467773438	-4.470423221588135	1556.468627929688	-545.3466186523438	81.87480163574219	1542.97705078125	-611.8323364257812	67.30703735351562	1420.465087890625	-694.9030151367188	113.0327377319336	1212.081420898438	-750.2446899414062	50.17385101318359	1178.919189453125	-698.4536743164062	282.716552734375	993.8701782226562	-738.0296020507812	210.9160766601562	945.4961547851562	-768.6578979492188	158.4094848632812	1105.79541015625	-769.2615966796875	354.7991333007812	815.9610595703125	-735.29931640625	263.228759765625	884.51123046875	-777.9382934570312	325.196533203125	916.7019653320312	-760.1912231445312	58.08710098266602	1537.087768554688	-261.7410888671875	32.68768692016602	1462.097412109375	-203.6725158691406	-20.94835472106934	1173.353515625	-208.5099945068359	-13.46474647521973	1178.681762695312	-305.19677734375	86.43593597412109	913.2420043945312	-219.4349365234375	6.750532150268555	906.2769775390625	-200.3090667724609	-10.67931747436523	1097.408325195312	-195.8345031738281	84.31122589111328	719.5469970703125	-252.2791442871094	98.46434020996094	801.1978149414062	-219.2418975830078	28.0583553314209	801.8655395507812	-200.0114288330078	44.68423080444336	1732.917114257812	-356.0745544433594	239.3616638183594	1797.061157226562	-437.2434692382812	209.4223175048828	1781.066772460938	-312.1808776855469	67.97598266601562	1753.891845703125	-488.3328247070312	54.26914978027344	1016.632995605469	-625.47412109375	132.0728149414062	977.4663696289062	-272.3880310058594	205.5623779296875	1053.103515625	-329.6296081542969	174.5868072509766	1069.4599609375	-594.468505859375	-15.15196704864502	521.29248046875	-619.9224243164062	-7.458710670471191	671.2041015625	-636.2318115234375	-256.3173522949219	56.87561798095703	-601.9515380859375	-180.136474609375	306.0322265625	-632.3310546875	-21.02485656738281	31.6728515625	-578.12060546875	-97.30410766601562	41.72731781005859	-533.3168334960938	-139.6891174316406	34.33021545410156	-643.9851684570312	-317.586181640625	73.24516296386719	-533.8280029296875	280.4563293457031	524.839111328125	-338.5386962890625	195.7410888671875	781.6571655273438	-284.5340270996094	418.4646301269531	29.67934799194336	-418.3040771484375	305.8226928710938	393.7811584472656	-343.090087890625	612.1964111328125	145.8125915527344	-370.8990783691406	590.2919311523438	111.5410842895508	-429.8507690429688	513.5279541015625	81.47048187255859	-343.7559204101562	387.6898803710938	21.4604320526123	-486.6298522949219	
369	3.68	3.59843635559082	1081.524169921875	-367.4330139160156	-5.449387550354004	1097.809326171875	-500.515380859375	-7.00918436050415	1125.507568359375	-436.716064453125	217.8226470947266	1315.558715820312	-442.6656188964844	-37.84683990478516	1280.878295898438	-434.2303466796875	13.48915767669678	1569.982788085938	-441.6535034179688	188.9234313964844	1451.895629882812	-437.2816162109375	-47.8277702331543	1383.355590820312	-364.3470153808594	5.459536552429199	1555.461547851562	-544.5524291992188	92.29434967041016	1542.086059570312	-610.6195068359375	77.99866485595703	1419.327392578125	-693.5756225585938	123.3646774291992	1210.636108398438	-748.0106201171875	60.11130523681641	1177.7529296875	-696.3427734375	293.0578308105469	992.6381225585938	-734.0718994140625	221.3798370361328	943.986572265625	-764.8426513671875	168.7428131103516	1104.236083984375	-766.3800659179688	365.2719116210938	814.7804565429688	-730.1121826171875	273.8436584472656	883.009765625	-773.5288696289062	335.6803894042969	915.3801879882812	-755.6770629882812	66.37310028076172	1535.92431640625	-260.5859375	40.74042510986328	1460.810180664062	-202.7726287841797	-12.52361106872559	1172.02783203125	-208.3189544677734	-4.4367995262146	1177.508178710938	-304.9624938964844	94.89966583251953	911.9365844726562	-219.0733489990234	15.16248035430908	904.9767456054688	-200.3359985351562	-2.384981632232666	1096.11181640625	-195.7265930175781	92.92986297607422	718.3395385742188	-252.4487152099609	106.9609680175781	799.8701171875	-219.1241607666016	36.4334716796875	800.5272216796875	-200.2335357666016	52.94931793212891	1731.912841796875	-355.1450805664062	248.4124755859375	1796.216796875	-434.31982421875	217.1260223388672	1780.151611328125	-309.5266723632812	77.49467468261719	1752.948364257812	-487.1220397949219	65.27835083007812	1015.64501953125	-624.8780517578125	141.8007354736328	976.6461181640625	-271.4990539550781	215.5232849121094	1052.258056640625	-328.3379516601562	185.3770904541016	1068.678588867188	-593.2908935546875	-6.509264469146729	520.8057250976562	-620.1741943359375	2.300940275192261	670.7937622070312	-636.3060913085938	-255.5085296630859	59.46492767333984	-603.2447509765625	-174.9572448730469	307.7902526855469	-633.3092651367188	-20.99965667724609	31.64615249633789	-578.1231079101562	-97.07587432861328	42.28178405761719	-533.7608642578125	-139.2306518554688	34.25159072875977	-644.4348754882812	-316.8522644042969	77.62755584716797	-535.4276733398438	289.3211059570312	523.764892578125	-337.20703125	205.8403930664062	780.9772338867188	-284.0118713378906	424.1203918457031	28.1606273651123	-417.0378112792969	313.8635559082031	392.3303527832031	-341.7683410644531	618.206298828125	142.1271514892578	-367.0210571289062	596.7572631835938	108.1072006225586	-426.2250671386719	518.7103271484375	78.62746429443359	-341.1275329589844	393.9750061035156	20.52364349365234	-485.4798889160156	
370	3.69	13.74708557128906	1080.704467773438	-366.9571838378906	5.263895034790039	1096.7490234375	-500.0889892578125	3.475004434585571	1124.471435546875	-436.2708435058594	227.8641204833984	1315.041137695312	-440.8626708984375	-27.89174652099609	1279.76123046875	-433.9110412597656	22.79584312438965	1569.001708984375	-440.6691589355469	198.4793243408203	1451.170776367188	-435.3284606933594	-38.50294494628906	1382.113891601562	-363.9841003417969	15.50547695159912	1554.5517578125	-543.6408081054688	102.8607940673828	1541.3017578125	-609.2517700195312	88.85847473144531	1418.308471679688	-692.1124267578125	133.6916961669922	1209.2734375	-745.6158447265625	70.01503753662109	1176.736938476562	-694.0725708007812	303.0907287597656	991.2567749023438	-729.9721069335938	231.4784088134766	942.4390869140625	-760.8726806640625	178.9369354248047	1102.70263671875	-763.3335571289062	375.1630554199219	813.3616943359375	-724.7818603515625	283.9672241210938	881.374755859375	-768.9622192382812	345.7093505859375	913.802001953125	-750.9960327148438	74.67520904541016	1534.835815429688	-259.2977294921875	48.80553817749023	1459.589721679688	-201.7585144042969	-3.984817504882812	1170.75830078125	-207.9568786621094	4.725916862487793	1176.366943359375	-304.5467834472656	103.5792007446289	910.7332763671875	-218.451904296875	23.79970359802246	903.750244140625	-200.1215972900391	6.074989318847656	1094.881713867188	-195.4165649414062	101.8719253540039	717.2259521484375	-252.2948150634766	115.7092819213867	798.6427001953125	-218.7133483886719	45.08052062988281	799.27197265625	-200.1811370849609	61.2817497253418	1730.980834960938	-354.094970703125	257.4864501953125	1795.526611328125	-431.2562866210938	224.8478851318359	1779.404907226562	-306.7409057617188	87.04282379150391	1752.08740234375	-485.7536010742188	76.58927154541016	1014.679992675781	-624.1187744140625	151.7439117431641	976.078125	-270.4054260253906	225.6825561523438	1051.612548828125	-326.8554077148438	196.4325866699219	1067.997802734375	-591.940185546875	2.664640665054321	520.3383178710938	-620.3826904296875	12.55338096618652	670.393310546875	-636.3010864257812	-254.5451965332031	62.31593704223633	-604.669677734375	-169.3768310546875	309.7092590332031	-634.3322143554688	-20.98036193847656	31.6583137512207	-578.1317138671875	-96.81990051269531	42.90929412841797	-534.2363891601562	-138.7200622558594	34.20027923583984	-644.9039306640625	-315.9439392089844	82.46194458007812	-537.1864013671875	298.5421752929688	522.85888671875	-335.6719970703125	216.3397216796875	780.6121215820312	-283.2759399414062	427.6170959472656	26.51375770568848	-416.25	321.8275451660156	390.8456420898438	-340.4317016601562	622.6754760742188	136.6344604492188	-363.5283813476562	601.5971069335938	103.0668334960938	-423.0233459472656	522.0585327148438	74.72434997558594	-339.0266723632812	398.1783447265625	19.70083999633789	-484.8810729980469	
